<svg t="1584697291936" class="icon" viewBox="0 0 1928 1024" version="1.1" xmlns="http://www.w3.org/2000/svg" p-id="5309" width="200" height="200"><path d="M963.70383 0C431.387234 0 0 458.784681 0 1024h1928.170213c-0.936851-565.215319-432.149787-1024-964.466383-1024" fill="#F9FBFF" p-id="5310"></path><path d="M975.349106 272.340426C587.057021 272.340426 272.340426 609.138383 272.340426 1024h1405.276595c0.75166-414.861617-313.954043-751.659574-702.267915-751.659574" fill="#E7EEFF" p-id="5311"></path><path d="M326.350979 326.656c-29.652426 0-54.010553-24.532426-54.010553-54.39183C272.340426 242.41566 296.513362 217.87234 326.350979 217.87234c29.848511 0 54.010553 24.532426 54.010553 54.39183 0 30.807149-23.606468 54.39183-54.010553 54.39183m0-81.397106a27.092426 27.092426 0 0 0-27.005277 27.190468c0 14.837106 12.091915 27.201362 27.01617 27.201361 14.913362 0 26.994383-12.16817 26.994383-27.201361 0-15.022298-11.329362-27.190468-27.005276-27.190468M1801.869617 838.808511c-27.571745 0-50.045277-22.626043-50.045277-50.393873 0-27.778723 22.473532-50.404766 50.045277-50.404766S1851.914894 760.646809 1851.914894 788.414638 1829.441362 838.808511 1801.869617 838.808511m0-71.701788a21.11183 21.11183 0 0 0 0 42.22366 21.11183 21.11183 0 0 0 20.959319-21.11183c0-11.601702-9.259574-21.11183-20.959319-21.11183M1563.92034 182.860255c9.401191-30.436766 45.524426-38.944681 72.987234-11.906723 9.782468 9.629957 14.858894 20.970213 15.980937 33.258213 28.595745-12.854468 44.587574-49.130213 47.779404-112.64l0.762553-15.316426 30.654638 1.514213-0.762553 15.305532c-4.128681 84.676085-32.157957 134.950128-84.076936 145.353532-18.802383 47.441702-79.000511 94.687319-134.111319 94.687319h-15.425362v-30.807149h15.425362c38.367319 0 80.689021-31.940085 99.317106-62.562043-37.060085-4.902128-57.191489-28.91166-48.531064-56.886468z m51.537703 10.392511c-11.470979-11.155064-19.750128-9.259574-22.190298-1.132936-2.636255 8.497021 5.076426 16.634553 29.151319 17.571404-0.381277-6.427234-2.44017-12.091915-6.961021-16.449362zM230.999149 780.505872c18.628085-25.708936 55.492085-21.928851 72.987234 12.658383 6.209362 12.288 7.331404 24.761191 4.324766 36.667915 31.221106-2.647149 58.12834-31.754894 81.636766-90.907234l5.642894-14.368681 28.410553 11.536341-5.642894 14.357787C386.941277 829.265702 344.238298 867.633021 291.763745 860.268936c-33.116596 38.759489-105.341277 63.705872-157.445447 45.557107L119.829787 900.716936l9.96766-29.107745 14.48851 5.098213c36.297532 12.669277 86.528-3.780085 114.176-26.645787-33.476085-16.634553-44.576681-45.927489-27.451914-69.555745z m45.524425 26.460596c-7.146213-14.368681-15.795745-15.12034-20.697872-8.31183-5.261617 7.178894-0.555574 17.386213 21.819915 26.079319 1.884596-6.045957 1.699404-12.091915-1.122043-17.767489z m277.264341-298.267234h844.222638V1002.212766H553.787915V508.710128z m30.850723 31.003234V971.601702h782.706383V539.702468h-782.706383z" fill="#D2DCF4" p-id="5312"></path><path d="M577.361702 533.787234h795.234043v490.212766H577.361702z" fill="#FFFFFF" p-id="5313"></path><path d="M642.723404 119.829787h697.19149v849.702128H642.723404z" fill="#FFFFFF" p-id="5314"></path><path d="M642.723404 570.76017h30.948766V631.829787H642.723404v-61.069617z m666.242724 0H1339.914894V631.829787h-30.948766v-61.069617zM642.723404 211.434213h30.948766v61.08051H642.723404v-61.08051z m0 84.12051h30.948766v61.069617H642.723404v-61.069617z m0 91.800511h30.948766v61.069617H642.723404v-61.069617z m0 91.615319h30.948766v61.058724H642.723404v-61.069617zM1308.966128 119.829787h-31.133958v30.534809h31.133958v30.534808H1339.914894V119.829787h-30.948766z m0 91.615319H1339.914894v61.069617h-30.948766v-61.08051z m0 84.109617H1339.914894v61.069617h-30.948766v-61.069617z m0 91.800511H1339.914894v61.069617h-30.948766v-61.069617z m0 91.615319H1339.914894v61.058724h-30.948766v-61.069617zM1184.985872 119.829787h61.897532v30.534809h-61.897532V119.829787z m-85.253446 0h61.897531v30.534809h-61.897531V119.829787z m-92.846298 0h61.897532v30.534809H1006.897021V119.829787z m-93.03149 0h61.897532v30.534809h-61.897532V119.829787z m-93.031489 0h61.897532v30.534809h-61.897532V119.829787z m-85.068255 0h61.897532v30.534809H735.754894V119.829787zM642.723404 119.829787v61.069617h30.948766v-30.534808h31.133958V119.829787H642.723404z" fill="#D2DCF4" p-id="5315"></path><path d="M983.083574 771.082894L1372.595745 620.93617v337.702128H620.93617V640.566468z" fill="#E1EAFF" p-id="5316"></path><path d="M975.697702 761.213277L1405.276596 588.255319v435.744681H555.574468V596.262128l420.123234 164.951149z m0.185192 33.378042L586.621277 641.634043V992.735319h787.793702V634.226383L975.882894 794.580426zM838.808511 430.297872a38.12766 38.12766 0 1 0 76.255319 0 38.12766 38.12766 0 0 0-76.255319 0zM1105.702128 468.425532a38.12766 38.12766 0 1 0 0-76.255319 38.12766 38.12766 0 0 0 0 76.255319zM983.562894 487.511149c28.018383-2.233191 66.015319 11.492766 56.603234 29.096851-9.401191 17.614979-20.305702-2.592681-46.08-2.592681-25.763404 0-30.654638 5.75183-35.349788 9.826043-9.412085 8.159319-20.501787 6.492596-22.767659-2.963064-2.810553-11.677957 19.564936-31.155745 47.594213-33.367149z m823.034553-72.115745H1841.021277v22.615149h-34.42383v34.107915h-23.127149v-34.107915h-34.42383V415.373617h34.42383V381.276596h23.127149v34.107915zM152.989957 577.971745h46.08v30.208h-46.08V653.617021H122.335319v-45.426383H76.255319v-30.208h46.08v-45.426383h30.654638v45.426383z" fill="#D2DCF4" p-id="5317"></path></svg>
