<svg t="1572331029185" class="icon" viewBox="0 0 1024 1024" version="1.1" xmlns="http://www.w3.org/2000/svg" p-id="8813" width="200" height="200"><path d="M725.402833 349.352643c-4.304026 0-8.609075-1.642406-11.895935-4.928243-6.572696-6.571672-6.572696-17.220197 0-23.791869l113.569592-113.569592c6.572696-6.571672 17.21815-6.571672 23.791869 0 6.572696 6.571672 6.572696 17.219173 0 23.790846L737.298767 344.4244C734.012931 347.710236 729.707882 349.352643 725.402833 349.352643z" p-id="8814" fill="#dbdbdb"></path><path d="M838.972425 821.871443c-4.305049 0-8.610098-1.644453-11.895935-4.929266L713.506898 703.370539c-6.572696-6.571672-6.572696-17.219173 0-23.791869 6.573719-6.571672 17.219173-6.571672 23.791869 0l113.569592 113.570615c6.572696 6.571672 6.572696 17.219173 0 23.791869C847.5815 820.225967 843.276451 821.871443 838.972425 821.871443z" p-id="8815" fill="#dbdbdb"></path><path d="M942.816514 528.827247 782.18814 528.827247c-9.30083 0-16.826224-7.53358-16.826224-16.826224 0-9.29162 7.525394-16.823154 16.826224-16.823154l160.628374 0c9.299807 0 16.824177 7.532557 16.824177 16.823154C959.640692 521.293667 952.116321 528.827247 942.816514 528.827247z" p-id="8816" fill="#dbdbdb"></path><path d="M581.502445 122.360815c-19.914562-7.845689-44.034912-4.377704-60.055794 8.569166L278.895453 326.72018 141.387659 326.72018c-42.459021 0-77.029374 30.79947-77.029374 68.664869l0 233.121432c0 37.863353 34.570353 68.654636 77.029374 68.654636L278.895453 697.161117l242.551198 195.773825c10.268878 8.289804 23.545252 12.865006 37.414121 12.865006 7.836479 0 15.44476-1.437745 22.641673-4.273327 20.177552-7.959276 33.17354-25.804712 33.17354-45.463448l0-688.24505C614.675986 148.174738 601.679997 130.339534 581.502445 122.360815L581.502445 122.360815zM559.352983 856.990289c-0.180102 0.065492-0.345877 0.100284-0.49221 0.100284L299.961234 648.450718 141.387659 648.450718c-12.341073 0-22.363334-8.945743-22.363334-19.945261L119.024326 395.384026c0-11.008728 10.021238-19.955494 22.363334-19.955494l158.573575 0L558.138318 167.037341l1.904373 0.780783L559.352983 856.990289 559.352983 856.990289zM559.352983 856.990289" p-id="8817" fill="#dbdbdb"></path></svg>
