<svg t="1573051456357" class="icon" viewBox="0 0 1024 1024" version="1.1" xmlns="http://www.w3.org/2000/svg" p-id="3930" width="16" height="16"><path d="M779.636 954.182H244.364A174.778 174.778 0 0 1 69.818 779.636V244.364A174.778 174.778 0 0 1 244.364 69.818H512a34.91 34.91 0 0 1 0 69.818H244.364a104.96 104.96 0 0 0-104.728 104.728v535.272a104.96 104.96 0 0 0 104.728 104.728h535.272a104.96 104.96 0 0 0 104.728-104.728V512a34.91 34.91 0 0 1 69.818 0v267.636a174.778 174.778 0 0 1-174.546 174.546z" p-id="3931"></path><path d="M808.96 149.178l32.815 33.047 33.047 32.815L714.24 375.622l-192 191.767-72.378 6.75 6.749-72.379 191.767-192L808.96 149.178m0-79.36a46.545 46.545 0 0 0-33.047 13.731L599.04 260.422 395.636 465.455a23.273 23.273 0 0 0-6.749 14.196L375.855 624.64a23.273 23.273 0 0 0 23.272 25.367h2.095l144.989-13.032a23.273 23.273 0 0 0 14.196-6.75l203.87-203.869 176.872-176.872a46.545 46.545 0 0 0 0-65.862l-50.036-50.735-49.338-49.338a46.545 46.545 0 0 0-32.815-13.73z" p-id="3932"></path></svg>