<svg t="1573052827903" class="icon" viewBox="0 0 1024 1024" version="1.1" xmlns="http://www.w3.org/2000/svg" p-id="5667" width="16" height="16"><path d="M418.449383 367.881481c30.340741-30.340741 32.869136-78.380247 5.05679-111.249382l-85.965432-108.720988c-27.812346-36.661728-80.908642-41.718519-116.306173-13.906173-2.528395 2.528395-5.05679 2.528395-5.05679 5.05679l-75.851852 75.851852c-72.059259 72.059259 30.340741 266.745679 217.441975 453.846914C543.604938 854.597531 734.498765 954.469136 807.822222 884.938272l74.587655-74.587655c32.869136-32.869136 32.869136-85.965432 0-116.306173l-5.056791-5.05679-108.720987-85.965432c-32.869136-27.812346-80.908642-25.283951-111.249383 5.05679l-46.775309 46.775309c-50.567901-30.340741-94.814815-64.474074-134.004938-102.4-39.190123-39.190123-72.059259-83.437037-102.4-134.004938l44.246914-50.567902zM379.259259 293.293827c8.849383 11.377778 8.849383 27.812346-2.528395 36.661729L316.049383 394.42963c-8.849383 8.849383-11.377778 22.755556-5.05679 32.869135 32.869136 60.681481 74.587654 115.041975 122.62716 164.345679 48.039506 48.039506 103.664198 89.758025 164.345679 122.627161 11.377778 5.05679 24.019753 2.528395 32.869136-5.05679L695.308642 644.740741c11.377778-11.377778 25.283951-11.377778 36.661728-2.528395l108.720988 88.493827s2.528395 0 2.528395 2.528395c11.377778 10.11358 11.377778 27.812346 1.264198 37.925926 0 0 0 1.264198-1.264198 1.264197L766.103704 847.012346c-36.661728 36.661728-208.592593-55.624691-372.938272-217.441976-164.345679-161.817284-252.839506-336.276543-217.441975-372.938271l78.380247-78.380247c11.377778-8.849383 30.340741-8.849383 39.190123 5.05679l85.965432 109.985185z" p-id="5668"></path></svg>