<svg t="1571639741887" class="icon" viewBox="0 0 1024 1024" version="1.1" xmlns="http://www.w3.org/2000/svg" p-id="3423" width="200" height="200"><path d="M376.15625 735.59375q16.03125 0 30.375 5.90625t25.3125 16.453125 16.875 24.890625 5.90625 30.375-5.90625 30.375-16.875 24.890625-25.3125 16.875-30.375 6.328125q-16.875 0-30.796875-6.328125t-24.890625-16.875-16.875-24.890625-5.90625-30.375 5.90625-30.375 16.875-24.890625 24.890625-16.453125 30.796875-5.90625zM727.15625 737.28125q16.03125 0 30.796875 5.90625t25.3125 16.453125 16.875 24.890625 6.328125 30.375-6.328125 30.375-16.875 24.890625-25.3125 16.875-30.796875 6.328125-30.375-6.328125-24.890625-16.875-16.875-24.890625-6.328125-30.375 6.328125-30.375 16.875-24.890625 24.890625-16.453125 30.375-5.90625zM868.90625 258.03125q23.625 0 36.703125 6.328125t18.5625 15.609375 5.0625 19.828125-2.953125 18.140625-10.546875 31.21875-18.140625 51.890625-19.828125 56.109375-14.765625 43.875q-10.96875 33.75-27.84375 46.828125t-41.34375 13.078125l-28.6875 0-54.84375 0-71.71875 0-78.46875 0-209.25 0 12.65625 75.9375 425.25 0q40.5 0 40.5 34.59375 0 16.875-8.015625 29.109375t-31.640625 12.234375l-40.5 0-78.46875 0-97.03125 0-98.71875 0-81 0-46.40625 0q-16.875 0-28.265625-7.59375t-18.984375-19.828125-12.234375-26.578125-7.171875-27q-0.84375-5.0625-4.640625-24.46875t-9.28125-48.515625-12.234375-64.96875-13.5-72.140625q-16.03125-85.21875-36.28125-189.84375l-63.28125 0q-12.65625 0-21.09375-6.328125t-13.921875-15.1875-7.59375-18.984375-2.109375-18.5625q0-16.875 11.390625-27.84375t30.796875-10.96875l18.5625 0 16.875 0 21.09375 0 28.6875 0q16.875 0 27 5.0625t16.03125 12.65625 8.4375 16.03125 4.21875 14.34375q1.6875 6.75 3.375 18.984375t3.375 24.890625q2.53125 15.1875 5.0625 32.0625l577.125 0z" fill="#FF4400" p-id="3424"></path></svg>
