<svg t="1571797240268" class="icon" viewBox="0 0 1024 1024" version="1.1" xmlns="http://www.w3.org/2000/svg" p-id="10357" width="200" height="200"><path d="M880.123149 356.704075c-34.93158-9.172917-117.167536-9.06547-237.399875-12.232602 5.710049-26.249851 6.991228-49.90255 6.991228-91.908246 0-100.345406-73.087599-188.730409-137.765667-188.730409-45.662992 0-83.328847 37.338397-83.903945 83.260286-0.627287 56.308447-18.025539 153.594167-111.871927 202.921619-6.883781 3.634784-26.575262 13.328563-29.444613 14.610766l1.475608 1.257643c-14.693654-12.657274-35.042097-22.367427-55.932893-22.367427l-83.908038 0c-46.266743 0-83.901899 37.650505-83.901899 83.901899l0 447.503057c0 46.267766 37.635155 83.901899 83.901899 83.901899l83.908038 0c33.29429 0 61.122079-20.100804 74.616418-48.28368 0.326435 0.107447 0.925069 0.272199 1.310855 0.325411 1.856277 0.49221 4.013407 1.037632 6.688329 1.749854 0.49221 0.107447 0.76441 0.160659 1.286296 0.325411 16.116049 3.985778 47.116087 11.416004 113.40177 26.65508 14.230096 3.224438 89.25686 19.227923 167.070086 19.227923l152.86762 0c46.623877 0 81.174787-17.381879 100.184747-53.915957 18.577101-32.514531 109.831454-206.678176 109.744473-452.145797C959.426309 417.436274 934.99385 372.382149 880.123149 356.704075L880.123149 356.704075zM260.234953 874.921683c0 15.459087-12.506848 27.969005-27.964912 27.969005l-83.908038 0c-15.458063 0-27.967982-12.510942-27.967982-27.969005L120.394021 427.417603c0-15.458063 12.510942-27.954679 27.967982-27.954679l83.908038 0c15.458063 0 27.964912 12.496615 27.964912 27.954679L260.234953 874.921683 260.234953 874.921683zM902.874315 470.353484C891.211694 751.439324 800.424992 878.473579 800.424992 878.473579c-8.466835 15.238053-22.070668 24.417109-50.91153 24.417109L596.644819 902.890688c-76.829829 0-153.005766-17.426905-154.973584-17.86488-116.183116-26.765597-122.302487-28.840862-129.59559-30.916127l4.097318-410.930093c0-42.516326 0.955768-31.778774 0-31.248701 127.770012-52.901861 166.660764-168.925341 167.805844-264.195148 0.165776-13.382798 10.488889-27.967982 27.969005-27.967982 29.581736 0 81.83175 59.353806 81.83175 132.795469 0 66.315358-2.650363 77.783551-25.89374 146.900721 279.682887 0 277.714046 4.000104 302.405401 10.475586 30.590715 8.740058 33.211403 34.088376 33.211403 42.823318C903.502625 462.349183 903.229402 460.956464 902.874315 470.353484L902.874315 470.353484zM902.874315 470.353484" p-id="10358" fill="#888888"></path></svg>
