<svg t="1571898304127" class="icon" viewBox="0 0 1024 1024" version="1.1" xmlns="http://www.w3.org/2000/svg" p-id="5401" width="200" height="200"><path d="M687.616 320.512l-155.648-185.856c-7.168-11.776-20.48-19.456-35.328-19.456-13.824 0-26.112 6.656-33.792 17.408L305.152 320.512c-14.848 17.408-12.288 43.52 5.12 58.368 17.408 14.848 43.52 12.288 58.368-5.12l86.528-103.424V901.12c0 23.04 18.432 41.472 41.472 41.472s41.472-18.432 41.472-41.472V271.36L624.64 373.76c14.848 17.408 40.96 19.968 58.368 5.12 16.896-14.848 19.456-40.96 4.608-58.368z" p-id="5402" fill="#666666"></path></svg>
