<svg t="1575703506744" class="icon" viewBox="0 0 1024 1024" version="1.1" xmlns="http://www.w3.org/2000/svg" p-id="1715" width="20" height="20"><path d="M643.541011 92.565897c4.871889 0 4.871889 0 0 0 4.871889 0 4.871889 0 0 0z m4.871889 0z m0 4.871889s0-4.871889 0 0c0-4.871889 0 0 0 0z m-214.363129 599.242383l-48.718893 0c0 4.871889-82.822118 4.871889-248.466354 0-58.462672 0-82.822118-48.718893-82.822118-107.181564l53.590783-433.598148c0-58.462672 48.718893-107.181564 107.181564-107.181564L648.41290001 48.718893 784.8258 48.718893 974.829483 48.718893 974.829483 643.089387l-199.747461-1e-8c-34.103225 97.437786-82.822118 233.85068601-102.309675 277.69769001C643.541011 988.993527 614.309675 1013.352973 565.590782 1023.096752c-48.718893 9.743779-199.747461-58.462672-155.900457-248.466354 0-9.74377901 4.871889-19.487557 4.871889-29.231336l19.487557-48.718893z" fill="#ff4400" p-id="1716"></path><path d="M219.686642 97.437786c-34.103225 0-58.462672 24.359446-58.462671 58.462671l0 4.87189-53.590782 428.726258c0 43.847004 9.743779 58.462672 34.103225 58.462671l355.647918 0-14.61566799 58.462672c-4.871889 24.359446-14.615668 48.718893-19.48755701 77.950228-29.231336 116.925343 48.718893 199.747461 97.437786 190.003683 34.103225-4.871889 48.718893-19.487557 73.078339-73.07834 9.743779-38.975114 48.718893-146.156679 97.43778601-277.697689l9.74377899-34.103225 43.847003 0 141.28479 0L926.11059 97.437786 219.686642 97.437786z" fill="#ff4400" p-id="1717"></path><path d="M779.953911 633.345608l-48.71889299 0 0-584.626715 48.71889299 0z" fill="#ff4400" p-id="1718"></path></svg>