<svg t="1584701291079" class="icon" viewBox="0 0 1024 1024" version="1.1" xmlns="http://www.w3.org/2000/svg" p-id="11557" width="200" height="200"><path d="M725.099 269.071c9.153 0 16.609 7.31 16.609 15.948v398.652L622.396 800.61H337.667c-9.153 0-16.61-7.312-16.61-15.944V285.349c0-8.968 7.458-15.944 16.61-15.944h387.431v-0.334m0.001-9.966H337.667c-14.575 0-26.781 11.627-26.781 25.914v499.313c0 14.284 11.862 25.911 26.781 25.911h288.454l3.053-2.987 59.658-58.468 41.014-40.2 13.558-13.289c7.458-7.307 8.137-7.971 8.137-11.957V284.684c0.334-13.621-11.867-25.579-26.442-25.579z" fill="#BFBFBF" p-id="11558"></path><path d="M670.604 349.226H425.95c-3.496 0-6.355 2.801-6.355 6.23v3.115c0 3.424 2.859 6.227 6.355 6.227h244.653c3.497 0 6.356-2.802 6.356-6.227v-3.115c0.001-3.425-2.858-6.23-6.355-6.23z m0 105.881H425.95c-3.496 0-6.355 2.801-6.355 6.226v3.116c0 3.424 2.859 6.226 6.355 6.226h244.653c3.497 0 6.356-2.802 6.356-6.226v-3.116c0.001-3.424-2.858-6.226-6.355-6.226z m-44.137 353.158V686.594h124.495L626.467 808.265z" fill="#BFBFBF" p-id="11559"></path><path d="M626.461 813.009a4.841 4.841 0 0 1-1.855-0.366 4.743 4.743 0 0 1-2.984-4.378V686.59c0-2.62 2.165-4.743 4.84-4.743h124.501c1.959 0 3.726 1.154 4.472 2.931a4.683 4.683 0 0 1-1.056 5.171l-124.5 121.674a4.885 4.885 0 0 1-3.418 1.386z m4.845-121.672v105.497l107.95-105.497h-107.95zM460.162 574.662c0 8.739 4.756 16.815 12.477 21.184a25.385 25.385 0 0 0 24.955 0c7.721-4.372 12.477-12.444 12.477-21.184 0-8.737-4.756-16.813-12.477-21.182a25.385 25.385 0 0 0-24.955 0c-7.721 4.372-12.477 12.445-12.477 21.182z m124.849 0c0 8.739 4.755 16.815 12.476 21.184a25.385 25.385 0 0 0 24.955 0c7.721-4.372 12.478-12.444 12.478-21.184 0-8.737-4.757-16.813-12.478-21.182a25.385 25.385 0 0 0-24.955 0c-7.721 4.372-12.476 12.445-12.476 21.182z m-37.243 64.833h-0.243c-12.687 0.065-25.491 5.555-39.137 16.781a5.64 5.64 0 0 0-0.721 8.052 5.913 5.913 0 0 0 8.215 0.703c22.766-18.72 41.128-18.724 63.387-0.012a5.909 5.909 0 0 0 8.219-0.616 5.631 5.631 0 0 0-0.628-8.056c-13.482-11.337-26.273-16.852-39.092-16.852m317.444 232.796H216.617c-2.671 0-4.841-2.123-4.841-4.743s2.169-4.743 4.841-4.743h648.595c2.676 0 4.841 2.123 4.841 4.743s-2.165 4.743-4.841 4.743z m152.767 0H888.894c-2.676 0-4.84-2.123-4.84-4.743s2.164-4.743 4.84-4.743h129.085c2.674 0 4.834 2.123 4.834 4.743s-2.161 4.743-4.834 4.743z m-823.7 0H97.467c-2.671 0-4.84-2.123-4.84-4.743s2.168-4.743 4.84-4.743h96.812c2.671 0 4.84 2.123 4.84 4.743s-2.169 4.743-4.84 4.743z m617.16 43.754H327.388c-2.675 0-4.841-2.121-4.841-4.743 0-2.62 2.166-4.743 4.841-4.743h484.051c2.674 0 4.84 2.123 4.84 4.743 0 2.622-2.166 4.743-4.84 4.743z m-506.895 0h-64.539c-2.671 0-4.841-2.121-4.841-4.743 0-2.62 2.169-4.743 4.841-4.743h64.539c2.675 0 4.841 2.123 4.841 4.743 0 2.622-2.166 4.743-4.841 4.743zM74.883 872.291H26.477c-2.671 0-4.84-2.123-4.84-4.743s2.169-4.743 4.84-4.743h48.406c2.671 0 4.84 2.123 4.84 4.743s-2.169 4.743-4.84 4.743z m44.629-129.671c0 9.604 5.228 18.48 13.714 23.282a27.908 27.908 0 0 0 27.429 0c8.487-4.802 13.714-13.678 13.714-23.282 0-9.605-5.227-18.479-13.714-23.283a27.908 27.908 0 0 0-27.429 0c-8.486 4.804-13.714 13.678-13.714 23.283z" fill="#BFBFBF" p-id="11560"></path><path d="M146.94 774.248c-17.794 0-32.268-14.189-32.268-31.628 0-17.438 14.478-31.629 32.268-31.629 17.792 0 32.27 14.191 32.27 31.629 0 17.439-14.474 31.628-32.27 31.628z m0-53.769c-12.456 0-22.588 9.932-22.588 22.141 0 12.21 10.133 22.142 22.588 22.142 12.457 0 22.59-9.932 22.59-22.142 0-12.209-10.133-22.141-22.59-22.141zM119.512 274.53c0 12.229 10.114 22.141 22.589 22.141 12.475 0 22.588-9.913 22.588-22.141 0-7.91-4.306-15.22-11.295-19.175a22.984 22.984 0 0 0-22.588 0c-6.989 3.956-11.294 11.266-11.294 19.175z" fill="#BFBFBF" p-id="11561"></path><path d="M142.102 301.415c-15.125 0-27.429-12.058-27.429-26.884 0-14.822 12.305-26.885 27.429-26.885 15.123 0 27.429 12.06 27.429 26.885-0.001 14.826-12.306 26.884-27.429 26.884z m0-44.282c-9.786 0-17.75 7.805-17.75 17.397s7.964 17.397 17.75 17.397c9.784 0 17.748-7.805 17.748-17.397s-7.964-17.397-17.748-17.397z m496.959-120.711c0 12.229 10.113 22.141 22.588 22.141 12.476 0 22.588-9.913 22.588-22.141 0-12.227-10.112-22.14-22.588-22.14-12.475 0-22.588 9.913-22.588 22.14z" fill="#BFBFBF" p-id="11562"></path><path d="M661.648 163.307c-15.122 0-27.43-12.058-27.43-26.885 0-14.825 12.308-26.885 27.43-26.885s27.43 12.06 27.43 26.885c0 14.827-12.302 26.885-27.43 26.885z m0-44.278c-9.783 0-17.748 7.805-17.748 17.396 0 9.593 7.965 17.397 17.748 17.397 9.786 0 17.748-7.805 17.748-17.397 0-9.591-7.958-17.396-17.748-17.396zM214.972 315.646c-0.001 4.992 2.715 9.606 7.127 12.103a14.507 14.507 0 0 0 14.259 0c4.412-2.496 7.129-7.11 7.127-12.103 0.002-4.993-2.715-9.606-7.127-12.103a14.512 14.512 0 0 0-14.259 0c-4.412 2.498-7.128 7.111-7.127 12.103z" fill="#BFBFBF" p-id="11563"></path><path d="M229.229 331.993c-9.195 0-16.677-7.332-16.677-16.347s7.482-16.346 16.677-16.346 16.677 7.332 16.677 16.346c-0.001 9.016-7.479 16.347-16.677 16.347z m0-27.949c-6.528 0-11.837 5.204-11.837 11.602 0 6.397 5.309 11.603 11.837 11.603 6.527 0 11.836-5.205 11.836-11.603-0.001-6.398-5.309-11.602-11.836-11.602z m532.183 448.98c0 4.992 2.717 9.606 7.129 12.104a14.509 14.509 0 0 0 14.257 0c4.412-2.497 7.13-7.111 7.128-12.104 0.002-4.992-2.716-9.606-7.128-12.104a14.514 14.514 0 0 0-14.257 0c-4.412 2.498-7.129 7.112-7.129 12.104zM411.823 124.301c-0.001 4.993 2.716 9.606 7.127 12.103a14.507 14.507 0 0 0 14.259 0c4.412-2.497 7.129-7.11 7.127-12.103 0.002-4.992-2.716-9.606-7.127-12.103a14.507 14.507 0 0 0-14.259 0c-4.411 2.496-7.128 7.111-7.127 12.103z" fill="#BFBFBF" p-id="11564"></path><path d="M426.075 140.643c-9.194 0-16.677-7.331-16.677-16.346s7.482-16.342 16.677-16.342 16.677 7.331 16.677 16.346-7.477 16.342-16.677 16.342z m0-27.945c-6.527 0-11.836 5.205-11.836 11.603s5.309 11.602 11.836 11.602c6.528 0 11.837-5.205 11.837-11.602s-5.308-11.603-11.837-11.603z m411.713 334.203c-0.002 4.993 2.714 9.606 7.126 12.103a14.514 14.514 0 0 0 14.26 0c4.412-2.497 7.128-7.11 7.128-12.103s-2.716-9.607-7.128-12.103a14.51 14.51 0 0 0-14.26 0c-4.412 2.495-7.128 7.11-7.126 12.103z" fill="#BFBFBF" p-id="11565"></path><path d="M852.045 463.247c-9.196 0-16.677-7.331-16.677-16.346s7.48-16.347 16.677-16.347c9.194 0 16.677 7.332 16.677 16.347s-7.483 16.346-16.677 16.346z m0-27.944c-6.527 0-11.837 5.205-11.837 11.602 0 6.398 5.31 11.603 11.837 11.603s11.835-5.205 11.835-11.603-5.308-11.602-11.835-11.602z m79.317 294.003c0 3.955 2.154 7.61 5.649 9.587s7.801 1.977 11.296 0 5.648-5.632 5.648-9.587-2.153-7.61-5.648-9.587a11.488 11.488 0 0 0-11.296 0c-3.494 1.976-5.649 5.632-5.649 9.587zM496.048 170.798c0 4.238 2.307 8.155 6.053 10.275a12.313 12.313 0 0 0 12.104 0c3.745-2.12 6.054-6.037 6.054-10.275 0-4.241-2.309-8.158-6.054-10.277a12.313 12.313 0 0 0-12.104 0c-3.746 2.12-6.053 6.037-6.053 10.277z" fill="#BFBFBF" p-id="11566"></path><path d="M508.154 185.033c-8.01 0-14.525-6.385-14.525-14.235 0-7.851 6.52-14.237 14.525-14.237 8.004 0 14.525 6.386 14.525 14.237 0 7.85-6.517 14.235-14.525 14.235z m0-23.727c-5.338 0-9.685 4.258-9.685 9.493 0 5.232 4.346 9.491 9.685 9.491s9.685-4.259 9.685-9.491c0-5.236-4.347-9.493-9.685-9.493z m457.898 424.892c0 2.825 1.537 5.434 4.034 6.846s5.572 1.412 8.069 0 4.034-4.021 4.034-6.846c0-2.824-1.537-5.435-4.034-6.845a8.205 8.205 0 0 0-8.069 0c-2.497 1.411-4.034 4.021-4.034 6.845z" fill="#BFBFBF" p-id="11567"></path><path d="M974.12 595.686c-5.338 0-9.681-4.258-9.681-9.487 0-5.23 4.343-9.488 9.681-9.488 5.339 0 9.682 4.258 9.682 9.488 0 5.229-4.343 9.487-9.682 9.487z m0-15.814c-3.56 0-6.452 2.838-6.452 6.326 0 3.487 2.893 6.325 6.452 6.325s6.453-2.838 6.453-6.325c0-3.488-2.894-6.326-6.453-6.326zM2.8 661.972c0 4.363 3.612 7.903 8.068 7.903 4.456 0 8.068-3.54 8.068-7.903 0-4.368-3.612-7.907-8.068-7.907-4.456-0.001-8.068 3.539-8.068 7.907z" fill="#BFBFBF" p-id="11568"></path><path d="M10.868 671.458c-5.338 0-9.681-4.258-9.681-9.486 0-5.231 4.342-9.489 9.681-9.489 5.338 0 9.68 4.258 9.68 9.489 0 5.228-4.342 9.486-9.68 9.486z m0-15.813c-3.559 0-6.453 2.838-6.453 6.327 0 3.485 2.898 6.325 6.453 6.325 3.554 0 6.452-2.84 6.452-6.325 0.004-3.49-2.893-6.327-6.452-6.327zM64.65 412.111c0 4.365 3.612 7.904 8.068 7.904s8.068-3.539 8.068-7.904c0-4.366-3.612-7.906-8.068-7.906s-8.068 3.541-8.068 7.906z" fill="#BFBFBF" p-id="11569"></path><path d="M72.718 421.599c-5.339 0-9.68-4.259-9.68-9.488 0-5.229 4.341-9.488 9.68-9.488 5.338 0 9.681 4.259 9.681 9.488 0 5.229-4.342 9.488-9.681 9.488z m0-15.815c-3.559 0-6.452 2.839-6.452 6.327 0 3.487 2.897 6.326 6.452 6.326 3.559 0 6.452-2.839 6.452-6.326 0-3.487-2.893-6.327-6.452-6.327z m239.81-216.899h-32.27c-1.783 0-3.227-1.416-3.227-3.162s1.444-3.161 3.227-3.161h32.27c1.784 0 3.229 1.415 3.229 3.161s-1.449 3.162-3.229 3.162z" fill="#BFBFBF" p-id="11570"></path><path d="M296.137 207.035a3.189 3.189 0 0 1-2.269-0.911 3.187 3.187 0 0 1-0.96-2.25V168.08c0-1.747 1.445-3.162 3.229-3.162 1.783 0 3.228 1.415 3.228 3.162v35.794a3.203 3.203 0 0 1-3.228 3.161z m554.538 108.611h-37.197a3.201 3.201 0 0 1-2.27-0.911 3.198 3.198 0 0 1-0.958-2.25c0-1.747 1.443-3.162 3.228-3.162h37.197c1.784 0 3.229 1.415 3.229 3.162a3.195 3.195 0 0 1-3.229 3.161z" fill="#BFBFBF" p-id="11571"></path><path d="M831.778 333.793a3.187 3.187 0 0 1-2.268-0.912 3.187 3.187 0 0 1-0.959-2.25v-35.794c0-1.746 1.442-3.161 3.227-3.161s3.229 1.415 3.229 3.161v35.794a3.197 3.197 0 0 1-3.229 3.162zM242.384 625.599h-37.202a3.197 3.197 0 0 1-3.228-3.162c0-1.745 1.445-3.161 3.228-3.161h37.202c1.783 0 3.229 1.416 3.229 3.161a3.194 3.194 0 0 1-3.229 3.162z" fill="#BFBFBF" p-id="11572"></path><path d="M223.487 643.743a3.194 3.194 0 0 1-3.228-3.161v-35.793c0-1.746 1.444-3.162 3.228-3.162 1.785 0 3.229 1.416 3.229 3.162v35.793a3.19 3.19 0 0 1-3.229 3.161z" fill="#BFBFBF" p-id="11573"></path></svg>
